<svg aria-hidden="true" style="position: absolute; width: 0; height: 0; overflow: hidden;" version="1.1" xmlns="http://www.w3.org/2000/svg" xmlns:xlink="http://www.w3.org/1999/xlink">
<defs>
<symbol id="icon-hexagon" viewBox="0 0 24 24">
<path d="M20 16c-0.001 0.121-0.025 0.246-0.070 0.362-0.080 0.206-0.225 0.384-0.426 0.5l-6.999 3.999c-0.112 0.064-0.232 0.105-0.355 0.124-0.218 0.034-0.445-0.003-0.654-0.124l-6.991-3.995c-0.111-0.065-0.207-0.148-0.285-0.245-0.139-0.171-0.22-0.385-0.22-0.621v-7.993c0.001-0.128 0.025-0.253 0.070-0.369 0.080-0.206 0.225-0.384 0.426-0.5l6.999-3.999c0.112-0.064 0.232-0.105 0.355-0.124 0.218-0.034 0.445 0.003 0.654 0.124l6.991 3.995c0.111 0.065 0.207 0.148 0.285 0.245 0.139 0.171 0.22 0.385 0.22 0.621zM22 16v-8c-0.001-0.71-0.248-1.363-0.664-1.878-0.23-0.286-0.512-0.528-0.831-0.715l-7.009-4.005c-0.61-0.352-1.3-0.465-1.954-0.364-0.363 0.057-0.715 0.179-1.037 0.363l-7.001 4.001c-0.618 0.357-1.060 0.897-1.299 1.514-0.133 0.342-0.202 0.707-0.205 1.077v8.007c0.001 0.71 0.248 1.363 0.664 1.878 0.23 0.286 0.512 0.528 0.831 0.715l7.009 4.005c0.61 0.352 1.3 0.465 1.954 0.364 0.363-0.057 0.715-0.179 1.037-0.363l7.001-4.001c0.618-0.357 1.060-0.897 1.299-1.514 0.133-0.342 0.202-0.707 0.205-1.084z"></path>
</symbol>
<symbol id="icon-circle" viewBox="0 0 20 20">
<path d="M10 0.4c-5.302 0-9.6 4.298-9.6 9.6s4.298 9.6 9.6 9.6c5.301 0 9.6-4.298 9.6-9.601 0-5.301-4.299-9.599-9.6-9.599zM10 17.599c-4.197 0-7.6-3.402-7.6-7.6s3.402-7.599 7.6-7.599c4.197 0 7.601 3.402 7.601 7.6s-3.404 7.599-7.601 7.599z"></path>
</symbol>
<symbol id="icon-star-empty" viewBox="0 0 32 32">
<path d="M32 12.408l-11.056-1.607-4.944-10.018-4.944 10.018-11.056 1.607 8 7.798-1.889 11.011 9.889-5.199 9.889 5.199-1.889-11.011 8-7.798zM16 23.547l-6.983 3.671 1.334-7.776-5.65-5.507 7.808-1.134 3.492-7.075 3.492 7.075 7.807 1.134-5.65 5.507 1.334 7.776-6.983-3.671z"></path>
</symbol>
<symbol id="icon-checkbox-unchecked" viewBox="0 0 24 24">
<path d="M18 18v-12h-12v12h12zM18 3.984q0.797 0 1.406 0.609t0.609 1.406v12q0 0.797-0.609 1.406t-1.406 0.609h-12q-0.797 0-1.406-0.609t-0.609-1.406v-12q0-0.797 0.609-1.406t1.406-0.609h12z"></path>
</symbol>
<symbol id="icon-eraser" viewBox="0 0 30 28">
<path d="M14 22l5.25-6h-12l-5.25 6h12zM29.828 5.172c0.313 0.719 0.187 1.547-0.328 2.141l-14 16c-0.375 0.438-0.922 0.688-1.5 0.688h-12c-0.781 0-1.5-0.453-1.828-1.172-0.313-0.719-0.187-1.547 0.328-2.141l14-16c0.375-0.438 0.922-0.688 1.5-0.688h12c0.781 0 1.5 0.453 1.828 1.172z"></path>
</symbol>
<symbol id="icon-stop2" viewBox="0 0 32 32">
<path d="M4 4h24v24h-24z"></path>
</symbol>
</defs>
</svg>
